# AST/ASF file generated using VICON BodyLanguage
# -----------------------------------------------
:version 1.10
:name VICON
:units
  mass 1.0
  length 0.45
  angle deg
:documentation
   .ast/.asf automatically generated from VICON data using
   VICON BodyBuilder and BodyLanguage model FoxedUp or BRILLIANT.MOD
:root
   order TX TY TZ RX RY RZ
   axis XYZ
   position 0 0 0  
   orientation 0 0 0 
:bonedata
  begin
     id 1 
     name lhipjoint
     direction 0.575328 -0.747301 0.332475 
     length 2.40933 
     axis 0 0 0  XYZ
  end
  begin
     id 2 
     name lfemur
     direction 0.34202 -0.939693 0  
     length 7.31453  
     axis 0 0 20  XYZ
    dof rx ry rz
    limits (-160.0 20.0)
           (-70.0 70.0)
           (-60.0 70.0)
  end
  begin
     id 3 
     name ltibia
     direction 0.34202 -0.939693 0   
     length 7.82185   
     axis 0 0 20   XYZ
    dof rx
    limits (-10.0 170.0)
  end
  begin
     id 4 
     name lfoot
     direction 0.0795993 -0.218697 0.972541   
     length 2.19173   
     axis -90 7.62852e-016 20   XYZ
    dof rx rz
    limits (-45.0 90.0)
           (-70.0 20.0)
  end
  begin
     id 5 
     name ltoes
     direction 1.53537e-011 -4.21894e-011 1   
     length 1.10023   
     axis -90 7.62852e-016 20   XYZ
    dof rx
    limits (-90.0 20.0)
  end
  begin
     id 6 
     name rhipjoint
     direction -0.513884 -0.783789 0.348708   
     length 2.29716  
     axis 0 0 0  XYZ 
  end
  begin
     id 7 
     name rfemur
     direction -0.34202 -0.939693 0   
     length 7.59573   
     axis 0 0 -20   XYZ
    dof rx ry rz
    limits (-160.0 20.0)
           (-70.0 70.0)
           (-70.0 60.0)
  end
  begin
     id 8 
     name rtibia
     direction -0.34202 -0.939693 0   
     length 7.66402   
     axis 0 0 -20   XYZ
    dof rx
    limits (-10.0 170.0)
 end
 begin
     id 9 
     name rfoot
     direction -0.137793 -0.378584 0.915253   
     length 2.27056  
     axis -90 -7.62852e-016 -20   XYZ
    dof rx rz
    limits (-45.0 90.0)
           (-20.0 70.0)
  end
  begin
     id 10 
     name rtoes
     direction -1.53493e-011 -4.22159e-011 1   
     length 1.11766   
     axis -90 -7.62852e-016 -20   XYZ
    dof rx
    limits (-90.0 20.0)
  end
  begin
     id 11 
     name lowerback
     direction -0.00732775 0.998356 -0.05685   
     length 2.16513   
     axis 0 0 0   XYZ
    dof rx ry rz
    limits (-20.0 45.0)
           (-30.0 30.0)
           (-30.0 30.0)
  end
  begin
     id 12 
     name upperback
     direction 0.0218081 0.999627 -0.0164647   
     length 2.16755   
     axis 0 0 0   XYZ
    dof rx ry rz
    limits (-20.0 45.0)
           (-30.0 30.0)
           (-30.0 30.0)
  end
  begin
     id 13 
     name thorax
     direction 0.02365 0.999661 0.0108914   
     length 2.16932   
     axis 0 0 0   XYZ
    dof rx ry rz
    limits (-20.0 45.0)
           (-30.0 30.0)
           (-30.0 30.0)
  end
  begin
     id 14 
     name lowerneck
     direction -0.0523929 0.978385 0.200044   
     length 1.63877   
     axis 0 0 0   XYZ
    dof rx ry rz
    limits (-20.0 45.0)
           (-30.0 30.0)
           (-30.0 30.0)
  end
  begin
     id 15 
     name upperneck
     direction 0.0448674 0.981321 -0.187074   
     length 1.69014   
     axis 0 0 0   XYZ
    dof rx ry rz
    limits (-20.0 45.0)
           (-30.0 30.0)
           (-30.0 30.0)
  end
  begin
     id 16
     name head
     direction 0.0199089 0.996118 -0.0857429  
     length 1.70094  
     axis 0 0 0   XYZ
    dof rx ry rz
    limits (-20.0 45.0)
           (-30.0 30.0)
           (-30.0 30.0)
  end
  begin
     id 17 
     name lclavicle
     direction 0.940366 0.30191 -0.156722  
     length 3.37521  
     axis 0 0 0   XYZ
    dof ry rz
    limits (-20.0 10.0)
           (0.0 20.0)
  end
  begin
     id 18 
     name lhumerus
     direction 1 -4.4897e-011 -1.7911e-027   
     length 5.25287   
     axis 180 -30 -90   XYZ
    dof rx ry rz
    limits (-60.0 90.0)
           (-90.0 90.0)
           (-90.0 90.0)
  end
  begin
     id 19
     name lradius
     direction 1 -4.48951e-011 1.04424e-027   
     length 3.51014   
     axis 180 -30 -90   XYZ
    dof rx
    limits (-10.0 170.0)
  end
  begin
     id 20
     name lwrist
     direction 1 -4.48997e-011 -9.5942e-028   
     length 1.75507   
     axis 8.48502e-016 90 90   XYZ
    dof ry
    limits (-180.0 0.0)
 end
  begin
     id 21 
     name lhand
     direction 1 -4.48831e-011 -1.90777e-027   
     length 0.706179   
     axis 1.22306e-015 90 90   XYZ
    dof rx rz
    limits (-90.0 90.0)
           (-45.0 45.0)
  end
  begin
     id 22 
     name lfingers
     direction 1 -4.49108e-011 -3.85244e-027   
     length 0.569339   
     axis 2.44611e-015 90 90   XYZ
    dof rx
    limits (0.0 90.0)
  end
  begin
     id 23
     name lthumb
     direction 0.707107 -6.34953e-011 0.707107   
     length 0.817461   
     axis -90 45 -1.62303e-014   XYZ
    dof rx rz
    limits (-45.0 45.0)
           (-45.0 45.0)
  end
  begin
     id 24 
     name rclavicle
     direction -0.905329 0.382405 -0.184787   
     length 3.30787  
     axis 0 0 0   XYZ 
    dof ry rz
    limits (-10.0 20.0)
           (-20.0 0.0)
  end
  begin
     id 25 
     name rhumerus
     direction -1 -4.48953e-011 -9.15316e-029  
     length 5.28721   
     axis 180 30 90   XYZ
    dof rx ry rz
    limits (-90.0 60.0)
           (-90.0 90.0)
           (-90.0 90.0)
  end
  begin
     id 26 
     name rradius
     direction -1 -4.48987e-011 9.37824e-028   
     length 3.50544   
     axis 180 30 90   XYZ
    dof rx
    limits (-10.0 170.0)
  end
  begin
     id 27 
     name rwrist
     direction -1 -4.48967e-011 -9.58414e-028   
     length 1.75272   
     axis 8.48502e-016 -90 -90   XYZ
    dof ry
    limits (-180.0 0.0)
  end
  begin
     id 28
     name rhand
     direction -1 -4.48904e-011 -1.91266e-027   
     length 0.884996   
     axis 1.22306e-015 -90 -90   XYZ
    dof rx rz
    limits (-90.0 90.0)
           (-45.0 45.0)
  end
  begin
     id 29
     name rfingers
     direction -1 -4.4909e-011 -3.85015e-027   
     length 0.713507   
     axis 2.44611e-015 -90 -90   XYZ
    dof rx
    limits (0.0 90.0)
  end
  begin
     id 30
     name rthumb
     direction -0.707107 -6.34853e-011 0.707107   
     length 1.02446   
     axis -90 -45 1.62303e-014   XYZ
    dof rx rz
    limits (-45.0 45.0)
           (-45.0 45.0)
  end
:hierarchy
  begin
    root lhipjoint rhipjoint lowerback
    lhipjoint lfemur
    lfemur ltibia
    ltibia lfoot
    lfoot ltoes
    rhipjoint rfemur
    rfemur rtibia
    rtibia rfoot
    rfoot rtoes
    lowerback upperback
    upperback thorax
    thorax lowerneck lclavicle rclavicle
    lowerneck upperneck
    upperneck head
    lclavicle lhumerus
    lhumerus lradius
    lradius lwrist
    lwrist lhand lthumb
    lhand lfingers
    rclavicle rhumerus
    rhumerus rradius
    rradius rwrist
    rwrist rhand rthumb
    rhand rfingers
  end

#!OML:ASF F:\twosubjects\two\Thursday\Session 1\justin.ASF
:FULLY-SPECIFIED
:DEGREES
113
root 7.36397 9.36133 -21.4594 -25.1325 -2.33214 0.931378
lowerback 37.3602 1.30392 -1.96468
upperback 15.3362 1.00055 1.68983
thorax -1.68965 0.291381 2.46218
lowerneck -21.9965 -4.18235 -10.1591
upperneck 6.98934 -3.93618 9.28659
head 6.0381 -1.4516 4.20244
rclavicle 3.18055e-015 -2.38542e-015
rhumerus 21.2579 37.5946 -71.2248
rradius 62.5058
rwrist 6.06749
rhand 13.1595 5.79092
rfingers 7.12502
rthumb 38.1165 -19.9765
lclavicle 3.18055e-015 -2.38542e-015
lhumerus 21.3843 -36.3732 72.7277
lradius 59.4831
lwrist -35.205
lhand 22.9928 36.2731
lfingers 7.12502
lthumb 47.3122 58.8006
rfemur -67.9296 -17.7467 6.83333
rtibia 86.9476
rfoot 6.19933 4.72938
rtoes -8.38745
lfemur -67.0144 18.874 -5.52893
ltibia 88.7851
lfoot 2.44289 -17.693
ltoes -7.21223
114
root 7.36241 9.36407 -21.4626 -25.0547 -2.55485 0.516349
lowerback 37.349 1.23313 -1.54661
upperback 15.3099 1.05701 1.79098
thorax -1.71631 0.334628 2.33091
lowerneck -22.2275 -4.09285 -9.89968
upperneck 7.30664 -3.832 8.89651
head 6.14943 -1.42025 4.045
rclavicle 1.59028e-015 3.18055e-015
rhumerus 21.2188 37.4918 -71.3778
rradius 62.5901
rwrist 5.70679
rhand 13.9425 5.28535
rfingers 7.12502
rthumb 38.8553 -20.276
lclavicle 1.59028e-015 3.18055e-015
lhumerus 21.3764 -36.3966 72.7174
lradius 59.4869
lwrist -35.1373
lhand 22.16 36.1881
lfingers 7.12502
lthumb 46.5417 59.0536
rfemur -67.9612 -17.6164 7.40002
rtibia 86.9115
rfoot 6.2147 4.58566
rtoes -8.95672
lfemur -67.1108 19.0423 -5.03066
ltibia 88.7897
lfoot 2.46132 -17.8661
ltoes -6.74028
115
root 7.36214 9.36774 -21.4658 -24.971 -2.71292 0.226455
lowerback 37.3018 1.16674 -1.25901
upperback 15.304 1.0727 1.84035
thorax -1.70643 0.353367 2.22755
lowerneck -22.566 -3.99559 -9.66782
upperneck 7.7416 -3.71933 8.60927
head 6.31931 -1.37547 3.92817
rclavicle 2.38542e-015 3.57812e-015
rhumerus 21.2868 37.5072 -71.4219
rradius 62.6109
rwrist 5.54782
rhand 14.0944 4.78133
rfingers 7.12502
rthumb 38.9986 -20.7391
lclavicle 2.38542e-015 3.57812e-015
lhumerus 21.3075 -36.362 72.7598
lradius 59.5554
lwrist -35.0888
lhand 21.4899 35.958
lfingers 7.12502
lthumb 45.9205 59.0855
rfemur -67.9871 -17.4957 7.7719
rtibia 86.8771
rfoot 6.11037 4.47321
rtoes -8.81623
lfemur -67.2007 19.1554 -4.69262
ltibia 88.786
lfoot 2.55444 -18.0024
ltoes -5.94029
116
root 7.36415 9.36631 -21.4633 -24.925 -2.69426 0.271137
lowerback 37.1975 1.16172 -1.27372
upperback 15.3455 1.06154 1.8227
thorax -1.62704 0.347475 2.2217
lowerneck -22.9349 -3.99025 -9.5569
upperneck 8.13558 -3.70381 8.42322
head 6.49568 -1.37288 3.85237
rclavicle -1.05356e-014 -3.57812e-015
rhumerus 21.4083 37.5618 -71.2346
rradius 62.5049
rwrist 5.70887
rhand 13.2133 5.10419
rfingers 7.12502
rthumb 38.1673 -20.6493
lclavicle -1.05356e-014 -3.57812e-015
lhumerus 21.3732 -36.3769 72.7455
lradius 59.5832
lwrist -34.978
lhand 21.1264 36.1181
lfingers 7.12502
lthumb 45.5829 59.3843
rfemur -68.0493 -17.5187 7.71167
rtibia 86.8886
rfoot 6.09647 4.49112
rtoes -8.40131
lfemur -67.2659 19.147 -4.76545
ltibia 88.7978
lfoot 2.54418 -18.0137
ltoes -6.67174
117
root 7.36459 9.36316 -21.4581 -24.882 -2.61424 0.405481
lowerback 37.1111 1.17928 -1.38979
upperback 15.3594 1.04459 1.78498
thorax -1.58384 0.335465 2.24934
lowerneck -22.8196 -3.9231 -9.75548
upperneck 8.03747 -3.59244 8.64605
head 6.44497 -1.30867 3.97259
rclavicle 2.5842e-015 3.18055e-015
rhumerus 21.3443 37.5643 -71.1864
rradius 62.3687
rwrist 6.15808
rhand 12.4278 6.11504
rfingers 7.12502
rthumb 37.4253 -19.8383
lclavicle 2.5842e-015 3.18055e-015
lhumerus 21.3939 -36.5236 72.6635
lradius 59.6686
lwrist -34.8202
lhand 20.9803 37.1145
lfingers 7.12502
lthumb 45.4472 60.4357
rfemur -68.1503 -17.5961 7.54958
rtibia 86.9258
rfoot 6.21009 4.48255
rtoes -7.93402
lfemur -67.2938 19.1052 -4.95803
ltibia 88.7848
lfoot 2.37252 -17.9905
ltoes -8.00968
118
root 7.36523 9.36454 -21.4578 -24.9404 -2.4989 0.506303
lowerback 37.2249 1.17575 -1.50366
upperback 15.3145 1.00121 1.76012
thorax -1.66784 0.310861 2.29582
lowerneck -22.6844 -3.76605 -9.81247
upperneck 8.01079 -3.38116 8.68414
head 6.39716 -1.20814 4.02083
rclavicle 3.97569e-015 -6.75868e-015
rhumerus 21.2443 37.6125 -71.266
rradius 62.3204
rwrist 6.34516
rhand 12.5301 6.49511
rfingers 7.12502
rthumb 37.5219 -19.4326
lclavicle 3.97569e-015 -6.75868e-015
lhumerus 21.276 -36.6389 72.6774
lradius 59.7509
lwrist -34.6611
lhand 21.1838 37.9487
lfingers 7.12502
lthumb 45.6362 61.1932
rfemur -68.0865 -17.7064 7.38599
rtibia 86.947
rfoot 6.2304 4.49743
rtoes -7.83053
lfemur -67.1996 18.9811 -5.09933
ltibia 88.7515
lfoot 2.43033 -17.8634
ltoes -6.45717
